<?xml version="1.0" encoding="UTF-8"?>
<svg id="a" data-name="Layer 1" xmlns="http://www.w3.org/2000/svg" viewBox="0 0 504 144">
  <defs>
    <style>
      .d {
        letter-spacing: -.02em;
      }

      .e, .f, .g, .h {
        fill: #fffaf5;
      }

      .i {
        letter-spacing: -.03em;
      }

      .f {
        font-family: LexendPeta-Medium, 'Lexend Peta';
        font-size: 31.05px;
        font-weight: 500;
      }

      .j {
        letter-spacing: -.03em;
      }

      .k {
        letter-spacing: -.02em;
      }

      .g {
        font-family: VintageGoods-Regular, 'Vintage Goods';
        font-size: 66.39px;
      }

      .h {
        font-family: Peachi-Black, Peachi;
        font-size: 76.9px;
        font-weight: 800;
      }

      .l {
        letter-spacing: -.04em;
      }

      .m {
        letter-spacing: -.03em;
      }
    </style>
  </defs>
  <g>
    <g>
      <path class="e" d="m107.58,92.82c2.77,3.41,4.08,3.55,8.87,1.92.24-.08.44.29.24.45-4.01,3.1-4.6,4.27-3.29,8.46.08.26-.21.41-.38.19-2.66-3.46-3.93-3.62-8.72-1.99-.24.08-.44-.29-.24-.45,4-3.09,4.56-4.25,3.15-8.37-.09-.26.2-.42.37-.21Z"/>
      <path class="e" d="m146.49,93.24c2.77,3.41,4.08,3.55,8.87,1.92.24-.08.44.29.24.45-4.01,3.1-4.6,4.27-3.29,8.46.08.26-.21.41-.38.19-2.66-3.46-3.93-3.62-8.72-1.99-.24.08-.44-.29-.24-.45,4-3.09,4.56-4.25,3.15-8.37-.09-.26.2-.42.37-.21Z"/>
      <path class="e" d="m125.11,95.89c.55,1.76.82,3.12.72,4.32-1.16.12-2.57-.02-4.4-.33-.33-.06-.48.41-.18.55,1.64.8,2.84,1.5,3.71,2.26-.94,1.44-2.66,2.88-5.39,4.88-.31.23-.05.72.31.59,3.1-1.15,5.22-1.78,6.92-1.81.09,1.13-.04,2.49-.34,4.24-.06.33.41.48.55.18.84-1.71,1.56-2.95,2.35-3.83,1.09.57,2.1,1.56,3.31,3.04.23.28.68.05.58-.3-.5-1.82-.73-3.22-.59-4.44,1.18-.13,2.62,0,4.5.32.33.06.48-.41.18-.55-1.65-.81-2.86-1.51-3.73-2.27.97-1.44,2.7-2.88,5.41-4.87.31-.23.05-.72-.31-.59-3.08,1.14-5.2,1.78-6.92,1.83-.09-1.13.04-2.5.34-4.26.06-.33-.41-.48-.55-.18-.86,1.75-1.61,3.02-2.42,3.9-1.13-.55-2.2-1.53-3.48-2.99-.24-.27-.68-.02-.57.32Z"/>
    </g>
    <g>
      <path class="e" d="m94.84,69.13c2.77,3.41,4.08,3.55,8.87,1.92.24-.08.44.29.24.45-4.01,3.1-4.6,4.27-3.29,8.46.08.26-.21.41-.38.19-2.66-3.46-3.93-3.62-8.72-1.99-.24.08-.44-.29-.24-.45,4-3.09,4.56-4.25,3.15-8.37-.09-.26.2-.42.37-.21Z"/>
      <path class="e" d="m115.94,36.44c2.77,3.41,4.08,3.55,8.87,1.92.24-.08.44.29.24.45-4.01,3.1-4.6,4.27-3.29,8.46.08.26-.21.41-.38.19-2.66-3.46-3.93-3.62-8.72-1.99-.24.08-.44-.29-.24-.45,4-3.09,4.56-4.25,3.15-8.37-.09-.26.2-.42.37-.21Z"/>
      <path class="e" d="m100.2,49.55c.55,1.76.82,3.12.72,4.32-1.16.12-2.57-.02-4.4-.33-.33-.06-.48.41-.18.55,1.64.8,2.84,1.5,3.71,2.26-.94,1.44-2.66,2.88-5.39,4.88-.31.23-.05.72.31.59,3.1-1.15,5.22-1.78,6.92-1.81.09,1.13-.04,2.49-.34,4.24-.06.33.41.48.55.18.84-1.71,1.56-2.95,2.35-3.83,1.09.57,2.1,1.56,3.31,3.04.23.28.68.05.58-.3-.5-1.82-.73-3.22-.59-4.44,1.18-.13,2.62,0,4.5.32.33.06.48-.41.18-.55-1.65-.81-2.86-1.51-3.73-2.27.97-1.44,2.7-2.88,5.41-4.87.31-.23.05-.72-.31-.59-3.08,1.14-5.2,1.78-6.92,1.83-.09-1.13.04-2.5.34-4.26.06-.33-.41-.48-.55-.18-.86,1.75-1.61,3.02-2.42,3.9-1.13-.55-2.2-1.53-3.48-2.99-.24-.27-.68-.02-.57.32Z"/>
    </g>
    <path class="e" d="m131.66,117.91c-7.62,3.79-16.31,5.77-25.49,5.33-27.12-1.3-48.34-23.09-48.95-50.23-.66-29,22.65-52.7,51.48-52.7,8.24,0,16.03,1.93,22.94,5.38-.4,0-.8-.02-1.2-.02-25.47,0-46.13,20.65-46.13,46.13s20.65,46.13,46.13,46.13c.41,0,.81,0,1.22-.02Z"/>
    <g id="b" data-name="Bursts">
      <g>
        <path class="e" d="m15.75,70.47c-2.14.24-3.72-1.2-3.59-2.53.12-1.27,1.82-2.56,3.82-2.35,11.12.27,22.23.53,33.35.8,1.19,0,1.95.91,1.75,1.69-.16.63-.95,1.18-1.87,1.17-11.15.41-22.31.81-33.46,1.22Z"/>
        <path class="e" d="m26.72,22.15c-1.91-1.01-2.39-3.09-1.54-4.11.82-.98,2.94-1.09,4.48.21,9.03,6.48,18.07,12.96,27.1,19.44.98.68,1.1,1.85.5,2.38-.49.43-1.44.44-2.21-.09-9.45-5.94-18.89-11.89-28.34-17.83Z"/>
        <path class="e" d="m26.72,113.92c-1.91,1.01-2.39,3.09-1.54,4.11.82.98,2.94,1.09,4.48-.21,9.03-6.48,18.07-12.96,27.1-19.44.98-.68,1.1-1.85.5-2.38-.49-.43-1.44-.44-2.21.09-9.45,5.94-18.89,11.89-28.34,17.83Z"/>
        <path class="e" d="m29.74,90.44c-1.37.54-2.75-.27-2.98-1.29-.22-.97.6-2.24,1.99-2.42,7.44-1.69,14.89-3.38,22.33-5.07.79-.2,1.51.35,1.56.97.04.5-.35,1.04-.97,1.2-7.31,2.2-14.62,4.41-21.93,6.61Z"/>
        <path class="e" d="m29.74,45.63c-1.37-.54-2.75.27-2.98,1.29-.22.97.6,2.24,1.99,2.42,7.44,1.69,14.89,3.38,22.33,5.07.79.2,1.51-.35,1.56-.97.04-.5-.35-1.04-.97-1.2-7.31-2.2-14.62-4.41-21.93-6.61Z"/>
        <path class="e" d="m54.86,120.75c-.61.87-1.76.93-2.3.4-.51-.5-.52-1.58.24-2.24,3.8-3.96,7.61-7.93,11.41-11.89.4-.43,1.04-.38,1.32-.03.22.28.2.77-.11,1.1-3.52,4.22-7.04,8.44-10.56,12.66Z"/>
        <path class="e" d="m54.86,15.32c-.61-.87-1.76-.93-2.3-.4-.51.5-.52,1.58.24,2.24,3.8,3.96,7.61,7.93,11.41,11.89.4.43,1.04.38,1.32.03.22-.28.2-.77-.11-1.1-3.52-4.22-7.04-8.44-10.56-12.66Z"/>
      </g>
    </g>
    <g id="c" data-name="Pen Tool">
      <g>
        <path class="e" d="m149.02,51.24l7-3.77c.19-.1.4-.06.48.09l9.17,17.06c.08.15,0,.35-.19.45l-7,3.77c-.19.1-.4.06-.48-.09l-9.17-17.06c-.08-.15,0-.35.19-.45Z"/>
        <path class="e" d="m125.38,52.44c4.38.9,9.85,1.57,16.12,1.28,2.88-.13,5.55-.45,7.95-.86l7.89,14.68c-1.68,1.72-3.44,3.73-5.16,6.05-3.81,5.15-6.21,10.19-7.74,14.3-.06.16-.21.26-.38.26l-39.22-.32c-.16,0-.22-.22-.07-.3l27.7-14.89c.11-.06.23-.04.32.04,1.12.97,2.81,1.15,4.15.24s1.87-2.83,1.12-4.32c-.86-1.72-2.96-2.37-4.65-1.47-1.28.69-1.94,2.08-1.76,3.44.02.12-.04.23-.14.29l-27.68,14.88c-.14.08-.3-.09-.21-.23,7.12-10.94,14.21-21.96,21.34-32.89.09-.14.25-.21.41-.17Z"/>
      </g>
    </g>
  </g>
  <text class="h" transform="translate(170.88 74.59)"><tspan class="m" x="0" y="0">d</tspan><tspan class="k" x="46.06" y="0">ol</tspan><tspan class="l" x="112.89" y="0">v</tspan><tspan class="i" x="152.03" y="0">a</tspan><tspan class="j" x="194.86" y="0">da</tspan></text>
  <text class="g" transform="translate(173.15 116.23)"><tspan x="0" y="0">design</tspan></text>
  <g>
    <circle class="e" cx="305.26" cy="108.96" r="2.32"/>
    <circle class="e" cx="305.26" cy="98.76" r="2.32"/>
    <circle class="e" cx="305.26" cy="88.56" r="2.32"/>
  </g>
  <g>
    <text class="f" transform="translate(312.1 111.43) scale(.94 1)"><tspan x="0" y="0">C</tspan><tspan class="d" x="28.01" y="0">D</tspan><tspan x="57.79" y="0">A,</tspan></text>
    <text class="f" transform="translate(407.05 111.43) scale(.94 1)"><tspan x="0" y="0">ID</tspan></text>
  </g>
</svg>