<?xml version="1.0" encoding="UTF-8"?>
<svg id="Layer_1" data-name="Layer 1" xmlns="http://www.w3.org/2000/svg" viewBox="0 0 504 144">
  <g>
    <g>
      <path d="m107.58,92.82c2.77,3.41,4.08,3.55,8.87,1.92.24-.08.44.29.24.45-4.01,3.1-4.6,4.27-3.29,8.46.08.26-.21.41-.38.19-2.66-3.46-3.93-3.62-8.72-1.99-.24.08-.44-.29-.24-.45,4-3.09,4.56-4.25,3.15-8.37-.09-.26.2-.42.37-.21Z" style="fill: #fffaf5;"/>
      <path d="m146.49,93.24c2.77,3.41,4.08,3.55,8.87,1.92.24-.08.44.29.24.45-4.01,3.1-4.6,4.27-3.29,8.46.08.26-.21.41-.38.19-2.66-3.46-3.93-3.62-8.72-1.99-.24.08-.44-.29-.24-.45,4-3.09,4.56-4.25,3.15-8.37-.09-.26.2-.42.37-.21Z" style="fill: #fffaf5;"/>
      <path d="m125.11,95.89c.55,1.76.82,3.12.72,4.32-1.16.12-2.57-.02-4.4-.33-.33-.06-.48.41-.18.55,1.64.8,2.84,1.5,3.71,2.26-.94,1.44-2.66,2.88-5.39,4.88-.31.23-.05.72.31.59,3.1-1.15,5.22-1.78,6.92-1.81.09,1.13-.04,2.49-.34,4.24-.06.33.41.48.55.18.84-1.71,1.56-2.95,2.35-3.83,1.09.57,2.1,1.56,3.31,3.04.23.28.68.05.58-.3-.5-1.82-.73-3.22-.59-4.44,1.18-.13,2.62,0,4.5.32.33.06.48-.41.18-.55-1.65-.81-2.86-1.51-3.73-2.27.97-1.44,2.7-2.88,5.41-4.87.31-.23.05-.72-.31-.59-3.08,1.14-5.2,1.78-6.92,1.83-.09-1.13.04-2.5.34-4.26.06-.33-.41-.48-.55-.18-.86,1.75-1.61,3.02-2.42,3.9-1.13-.55-2.2-1.53-3.48-2.99-.24-.27-.68-.02-.57.32Z" style="fill: #fffaf5;"/>
    </g>
    <g>
      <path d="m94.84,69.13c2.77,3.41,4.08,3.55,8.87,1.92.24-.08.44.29.24.45-4.01,3.1-4.6,4.27-3.29,8.46.08.26-.21.41-.38.19-2.66-3.46-3.93-3.62-8.72-1.99-.24.08-.44-.29-.24-.45,4-3.09,4.56-4.25,3.15-8.37-.09-.26.2-.42.37-.21Z" style="fill: #fffaf5;"/>
      <path d="m115.94,36.44c2.77,3.41,4.08,3.55,8.87,1.92.24-.08.44.29.24.45-4.01,3.1-4.6,4.27-3.29,8.46.08.26-.21.41-.38.19-2.66-3.46-3.93-3.62-8.72-1.99-.24.08-.44-.29-.24-.45,4-3.09,4.56-4.25,3.15-8.37-.09-.26.2-.42.37-.21Z" style="fill: #fffaf5;"/>
      <path d="m100.2,49.55c.55,1.76.82,3.12.72,4.32-1.16.12-2.57-.02-4.4-.33-.33-.06-.48.41-.18.55,1.64.8,2.84,1.5,3.71,2.26-.94,1.44-2.66,2.88-5.39,4.88-.31.23-.05.72.31.59,3.1-1.15,5.22-1.78,6.92-1.81.09,1.13-.04,2.49-.34,4.24-.06.33.41.48.55.18.84-1.71,1.56-2.95,2.35-3.83,1.09.57,2.1,1.56,3.31,3.04.23.28.68.05.58-.3-.5-1.82-.73-3.22-.59-4.44,1.18-.13,2.62,0,4.5.32.33.06.48-.41.18-.55-1.65-.81-2.86-1.51-3.73-2.27.97-1.44,2.7-2.88,5.41-4.87.31-.23.05-.72-.31-.59-3.08,1.14-5.2,1.78-6.92,1.83-.09-1.13.04-2.5.34-4.26.06-.33-.41-.48-.55-.18-.86,1.75-1.61,3.02-2.42,3.9-1.13-.55-2.2-1.53-3.48-2.99-.24-.27-.68-.02-.57.32Z" style="fill: #fffaf5;"/>
    </g>
    <path d="m131.66,117.91c-7.62,3.79-16.31,5.77-25.49,5.33-27.12-1.3-48.34-23.09-48.95-50.23-.66-29,22.65-52.7,51.48-52.7,8.24,0,16.03,1.93,22.94,5.38-.4,0-.8-.02-1.2-.02-25.47,0-46.13,20.65-46.13,46.13s20.65,46.13,46.13,46.13c.41,0,.81,0,1.22-.02Z" style="fill: #fffaf5;"/>
    <g id="Bursts">
      <g>
        <path d="m15.75,70.47c-2.14.24-3.72-1.2-3.59-2.53.12-1.27,1.82-2.56,3.82-2.35,11.12.27,22.23.53,33.35.8,1.19,0,1.95.91,1.75,1.69-.16.63-.95,1.18-1.87,1.17-11.15.41-22.31.81-33.46,1.22Z" style="fill: #fffaf5;"/>
        <path d="m26.72,22.15c-1.91-1.01-2.39-3.09-1.54-4.11.82-.98,2.94-1.09,4.48.21,9.03,6.48,18.07,12.96,27.1,19.44.98.68,1.1,1.85.5,2.38-.49.43-1.44.44-2.21-.09-9.45-5.94-18.89-11.89-28.34-17.83Z" style="fill: #fffaf5;"/>
        <path d="m26.72,113.92c-1.91,1.01-2.39,3.09-1.54,4.11.82.98,2.94,1.09,4.48-.21,9.03-6.48,18.07-12.96,27.1-19.44.98-.68,1.1-1.85.5-2.38-.49-.43-1.44-.44-2.21.09-9.45,5.94-18.89,11.89-28.34,17.83Z" style="fill: #fffaf5;"/>
        <path d="m29.74,90.44c-1.37.54-2.75-.27-2.98-1.29-.22-.97.6-2.24,1.99-2.42,7.44-1.69,14.89-3.38,22.33-5.07.79-.2,1.51.35,1.56.97.04.5-.35,1.04-.97,1.2-7.31,2.2-14.62,4.41-21.93,6.61Z" style="fill: #fffaf5;"/>
        <path d="m29.74,45.63c-1.37-.54-2.75.27-2.98,1.29-.22.97.6,2.24,1.99,2.42,7.44,1.69,14.89,3.38,22.33,5.07.79.2,1.51-.35,1.56-.97.04-.5-.35-1.04-.97-1.2-7.31-2.2-14.62-4.41-21.93-6.61Z" style="fill: #fffaf5;"/>
        <path d="m54.86,120.75c-.61.87-1.76.93-2.3.4-.51-.5-.52-1.58.24-2.24,3.8-3.96,7.61-7.93,11.41-11.89.4-.43,1.04-.38,1.32-.03.22.28.2.77-.11,1.1-3.52,4.22-7.04,8.44-10.56,12.66Z" style="fill: #fffaf5;"/>
        <path d="m54.86,15.32c-.61-.87-1.76-.93-2.3-.4-.51.5-.52,1.58.24,2.24,3.8,3.96,7.61,7.93,11.41,11.89.4.43,1.04.38,1.32.03.22-.28.2-.77-.11-1.1-3.52-4.22-7.04-8.44-10.56-12.66Z" style="fill: #fffaf5;"/>
      </g>
    </g>
    <g id="Pen_Tool" data-name="Pen Tool">
      <g>
        <path d="m149.02,51.24l7-3.77c.19-.1.4-.06.48.09l9.17,17.06c.08.15,0,.35-.19.45l-7,3.77c-.19.1-.4.06-.48-.09l-9.17-17.06c-.08-.15,0-.35.19-.45Z" style="fill: #fffaf5;"/>
        <path d="m125.38,52.44c4.38.9,9.85,1.57,16.12,1.28,2.88-.13,5.55-.45,7.95-.86l7.89,14.68c-1.68,1.72-3.44,3.73-5.16,6.05-3.81,5.15-6.21,10.19-7.74,14.3-.06.16-.21.26-.38.26l-39.22-.32c-.16,0-.22-.22-.07-.3l27.7-14.89c.11-.06.23-.04.32.04,1.12.97,2.81,1.15,4.15.24s1.87-2.83,1.12-4.32c-.86-1.72-2.96-2.37-4.65-1.47-1.28.69-1.94,2.08-1.76,3.44.02.12-.04.23-.14.29l-27.68,14.88c-.14.08-.3-.09-.21-.23,7.12-10.94,14.21-21.96,21.34-32.89.09-.14.25-.21.41-.17Z" style="fill: #fffaf5;"/>
      </g>
    </g>
  </g>
  <g>
    <path d="m173.03,54.21c0-14.92,7.84-22.76,19.23-22.76,2.31,0,4.08.31,5.54.85,1.08.38,1.69-.08,1.69-1.23-.08-4.15-.31-4.61-1.77-7.46-.62-1.38-.92-3.23,1-3.69l10.92-2.85c2.31-.54,4.23-.31,4.23,4v43.3c0,4.15,1.31,4.61,3.38,4.31,2-.15,2.85,1.62,1.54,2.92-1.62,1.77-5.54,3.84-9.38,3.84-3.15,0-5.92-1-7.61-3.61-.62-.92-1.08-1.08-1.69-.38-2.62,2.62-6.08,4-10.54,4-12.15,0-16.53-9.69-16.53-21.23Zm22.46,12.54c2.54,0,3.92-2.54,3.92-6.23v-14.54c0-6.61-1.77-8.84-4.38-8.84-5.08,0-5.77,7.84-5.77,15.23,0,11.38,3.31,14.38,6.23,14.38Z" style="fill: #fffaf5;"/>
    <path d="m219.1,53.59c0-11.92,7.92-22.15,21.92-22.15,12.84,0,19.92,9.92,19.92,21.61,0,13.07-7.77,22.3-20.76,22.3s-21.07-9-21.07-21.76Zm20.84,16.38c3.69,0,5.54-5.15,5.54-17.69,0-10.92-1.69-15.46-5.15-15.46-3.84,0-5.69,4.54-5.69,16,0,12.23,1.77,17.15,5.31,17.15Z" style="fill: #fffaf5;"/>
    <path d="m263.7,71.66q2.77-3.77,2.77-11.07v-26.92q0-6.69-1.77-10.07c-.62-1.38-.92-3.23,1-3.69l10.92-2.85c2.31-.54,4.23-.31,4.23,4v39.53c.08,7.31,0,7.31,2.77,11.07.92,1.23.69,2.92-1.15,2.92h-17.61c-1.85,0-2.08-1.69-1.15-2.92Z" style="fill: #fffaf5;"/>
    <path d="m298.23,70.89c-4.15-6.69-7.38-15.38-10.07-25.15-1.15-4.77-2.92-9.38-3.85-10.92-.62-1.23-.31-2.77,1-2.77h16.46c1.85,0,2.23,1.31,1.23,2.77-1.23,2-1.31,5.23-.77,8.31,1.38,6.69,3.15,12.15,5.61,17.53.54,1.23,1.62,1.23,2.15,0,2.08-4.92,3.77-9.84,4.84-14.46.85-3.92.69-8.61-.77-11.38-.85-1.46-.54-2.77,1.23-2.77h9.54c1.31,0,1.54,1.31.85,2.77-.85,1.85-2.54,5.31-3.38,8.08-2.85,9.07-6.08,18.61-10.38,27.22-2,3.85-3.62,5.23-6.54,5.23-3.31,0-5.38-1.77-7.15-4.46Z" style="fill: #fffaf5;"/>
    <path d="m324.83,63.9c0-9.84,12.15-14.69,22.84-17.61.92-.23,1.31-.85,1.31-1.85-.15-5.77-1.54-7.61-3.31-7.61-6.61,0-2.85,10.84-11.84,10.84-4,0-6.15-2.69-6.15-5.92,0-7.15,9.08-10.31,18.15-10.31,12.15,0,17.46,5,17.46,15.23v17.69c0,4.15,1.31,4.61,3.38,4.31,2-.15,2.77,1.62,1.54,2.92-1.62,1.77-5.54,3.84-9.38,3.84s-6.92-1.38-8.38-5.08c-.38-1-.85-1-1.61,0-3.08,3.69-7.38,5-11.46,5-6.46,0-12.54-3.85-12.54-11.46Zm18.69,3.15c3.46,0,5.38-4.46,5.38-6.92l.08-7.31c0-1.08-1.15-1.54-2.69-.85-5.08,2.23-7.15,5.77-7.15,9.54,0,3.54,1.92,5.54,4.38,5.54Z" style="fill: #fffaf5;"/>
    <path d="m367.9,54.21c0-14.92,7.84-22.76,19.23-22.76,2.31,0,4.08.31,5.54.85,1.08.38,1.69-.08,1.69-1.23-.08-4.15-.31-4.61-1.77-7.46-.62-1.38-.92-3.23,1-3.69l10.92-2.85c2.31-.54,4.23-.31,4.23,4v43.3c0,4.15,1.31,4.61,3.38,4.31,2-.15,2.85,1.62,1.54,2.92-1.61,1.77-5.54,3.84-9.38,3.84-3.15,0-5.92-1-7.61-3.61-.62-.92-1.08-1.08-1.69-.38-2.61,2.62-6.08,4-10.54,4-12.15,0-16.53-9.69-16.53-21.23Zm22.46,12.54c2.54,0,3.92-2.54,3.92-6.23v-14.54c0-6.61-1.77-8.84-4.38-8.84-5.08,0-5.77,7.84-5.77,15.23,0,11.38,3.31,14.38,6.23,14.38Z" style="fill: #fffaf5;"/>
    <path d="m414.5,63.9c0-9.84,12.15-14.69,22.84-17.61.92-.23,1.31-.85,1.31-1.85-.15-5.77-1.54-7.61-3.31-7.61-6.61,0-2.85,10.84-11.84,10.84-4,0-6.15-2.69-6.15-5.92,0-7.15,9.07-10.31,18.15-10.31,12.15,0,17.46,5,17.46,15.23v17.69c0,4.15,1.31,4.61,3.38,4.31,2-.15,2.77,1.62,1.54,2.92-1.62,1.77-5.54,3.84-9.38,3.84s-6.92-1.38-8.38-5.08c-.38-1-.85-1-1.62,0-3.08,3.69-7.38,5-11.46,5-6.46,0-12.54-3.85-12.54-11.46Zm18.69,3.15c3.46,0,5.38-4.46,5.38-6.92l.08-7.31c0-1.08-1.15-1.54-2.69-.85-5.08,2.23-7.15,5.77-7.15,9.54,0,3.54,1.92,5.54,4.38,5.54Z" style="fill: #fffaf5;"/>
  </g>
  <g>
    <path d="m171.69,108.39c0-1.46.53-2.99,1.59-4.58,1.06-1.59,2.38-3.04,3.95-4.35,1.57-1.3,3.22-2.38,4.95-3.22,1.73-.84,3.25-1.26,4.58-1.26.49,0,.97.04,1.46.13.49.09.93.27,1.33.53l.2.13c.22.13.42.2.6.2.31,0,.66-.18,1.06-.53.57-.49,1.22-1.25,1.92-2.29.71-1.04,1.46-2.16,2.26-3.35.62-.93,1.25-1.84,1.89-2.72.64-.88,1.29-1.73,1.96-2.52.66-.8,1.34-1.5,2.02-2.12.69-.62,1.38-1.08,2.09-1.39.35-.18.67-.29.96-.33.29-.04.56-.07.83-.07.66,0,1.2.21,1.59.63.4.42.6.96.6,1.63,0,1.02-.41,2.08-1.23,3.19-.82,1.11-1.79,2.17-2.92,3.19-1.13,1.02-2.29,1.94-3.49,2.76-1.19.82-2.17,1.47-2.92,1.96-.49.31-1.25,1.12-2.29,2.42-1.04,1.31-2.09,2.75-3.15,4.35-1.06,1.59-2,3.13-2.82,4.61-.82,1.48-1.23,2.56-1.23,3.22,0,.44.17.8.5,1.06s.74.4,1.23.4c.88,0,2.16-.51,3.82-1.53,1.66-1.02,3.42-2.48,5.28-4.38.53-.58,1.04-.86,1.53-.86.58,0,.86.31.86.93,0,.31-.2.71-.6,1.19l-1,1.06c-2.26,2.39-4.26,4.14-6.01,5.25-1.75,1.11-3.26,1.66-4.55,1.66-1.11,0-2.04-.36-2.79-1.09-.75-.73-1.17-1.6-1.26-2.62-.13-.13-.29-.2-.46-.2-.35,0-.79.14-1.29.43-.51.29-1.03.61-1.56.96-.75.49-1.55.91-2.39,1.26-.84.35-1.75.53-2.72.53-1.33,0-2.39-.39-3.19-1.16s-1.2-1.8-1.2-3.09Zm6.04.66c.8,0,1.81-.37,3.05-1.1,1.24-.73,2.45-1.63,3.62-2.69,1.17-1.06,2.19-2.18,3.05-3.35.86-1.17,1.29-2.18,1.29-3.02,0-1.06-.62-1.59-1.86-1.59-.84,0-1.9.32-3.19.96-1.28.64-2.52,1.44-3.72,2.39-1.19.95-2.21,1.99-3.05,3.12-.84,1.13-1.26,2.18-1.26,3.15,0,.66.2,1.18.6,1.56s.88.56,1.46.56Zm20.05-18.46c0,.09.07.13.2.13.4,0,1.03-.31,1.89-.93.86-.62,1.71-1.35,2.56-2.19.84-.84,1.58-1.69,2.22-2.56.64-.86.96-1.52.96-1.96,0-.35-.13-.53-.4-.53-.31,0-.86.35-1.66,1.06-.8.71-1.63,1.53-2.49,2.46s-1.63,1.84-2.29,2.72c-.66.89-1,1.48-1,1.79Z" style="fill: #fffaf5;"/>
    <path d="m211.19,95.11c1.46,0,2.64.37,3.55,1.1.91.73,1.36,1.65,1.36,2.75,0,1.2-.51,2.2-1.53,3.02-1.02.82-2.22,1.48-3.62,1.99s-2.83.9-4.32,1.16c-1.48.27-2.69.44-3.62.53-.53.09-.89.3-1.06.63-.18.33-.27.7-.27,1.1,0,1.11.51,1.86,1.53,2.26,1.02.4,2.12.6,3.32.6,2.48,0,4.79-.61,6.94-1.83,2.15-1.22,4.11-2.71,5.88-4.48.22-.22.49-.33.8-.33s.59.1.83.3.37.45.37.76c0,.18-.11.42-.33.73-1.86,2.52-4.15,4.35-6.87,5.48s-5.61,1.69-8.66,1.69c-2.66,0-4.61-.51-5.88-1.53-1.26-1.02-1.89-2.3-1.89-3.85,0-1.42.43-2.84,1.29-4.28.86-1.44,1.96-2.73,3.29-3.88,1.33-1.15,2.79-2.09,4.38-2.82,1.59-.73,3.1-1.1,4.51-1.1Zm-7.77,7.9c0,.31.24.46.73.46l.33-.07c.4-.09,1.05-.21,1.96-.37.91-.15,1.85-.39,2.82-.7.97-.31,1.83-.67,2.56-1.1.73-.42,1.09-.94,1.09-1.56,0-.4-.18-.72-.53-.96-.36-.24-.78-.37-1.26-.37-.53,0-1.23.17-2.09.5-.86.33-1.72.73-2.56,1.2-.84.46-1.56.96-2.16,1.49-.6.53-.9,1.02-.9,1.46Z" style="fill: #fffaf5;"/>
    <path d="m215.71,110.58c0-1.15.55-1.73,1.66-1.73.89,0,1.51.46,1.86,1.39.22.62.59,1.06,1.1,1.33.51.27,1.07.4,1.69.4.53,0,1.05-.09,1.56-.27.51-.18.98-.42,1.43-.73.44-.31.8-.67,1.06-1.1.27-.42.4-.9.4-1.43,0-.31-.06-.79-.17-1.43-.11-.64-.25-1.27-.43-1.89-.18-.62-.39-1.17-.63-1.66-.24-.49-.5-.73-.76-.73s-.72.25-1.36.76-1.36,1.14-2.16,1.89c-.36.27-.6.4-.73.4-.36,0-.64-.12-.86-.37-.22-.24-.33-.52-.33-.83,0-.22.07-.4.2-.53l2.66-2.66,2.26-2.46c.75-.75,1.48-1.5,2.19-2.26s1.44-1.39,2.19-1.93c.53-.35,1.12-.67,1.76-.96.64-.29,1.25-.43,1.83-.43.49,0,.93.13,1.33.4.4.27.6.66.6,1.2,0,.49-.14.82-.43,1s-.54.29-.76.33c-1.42.22-2.48.77-3.19,1.66-.71.89-1.06,1.99-1.06,3.32,0,.31.03.82.1,1.53.07.71.18,1.43.33,2.16.15.73.39,1.37.7,1.92.31.55.71.83,1.2.83.31,0,.71-.12,1.2-.37.49-.24,1-.54,1.53-.9.53-.35,1.05-.75,1.56-1.2.51-.44.96-.86,1.36-1.26v-.07c.22-.22.51-.33.86-.33s.64.1.86.3.33.43.33.7c0,.31-.13.6-.4.86l-.13.07c-.62.62-1.46,1.33-2.52,2.12s-2.12,1.57-3.19,2.32c-1.06.75-2.05,1.43-2.95,2.03-.91.6-1.54.99-1.89,1.16-.75.62-1.59,1.09-2.52,1.39-.93.31-1.84.46-2.72.46-.71,0-1.45-.1-2.22-.3-.78-.2-1.48-.49-2.12-.86-.64-.38-1.17-.84-1.59-1.39s-.63-1.18-.63-1.89Z" style="fill: #fffaf5;"/>
    <path d="m235.16,106.4c.58-1.24,1.43-2.57,2.56-3.98,1.13-1.42,2.11-2.66,2.95-3.72l1.66-2.12c.57-.75,1.22-1.13,1.92-1.13.35,0,.67.12.96.37.29.24.43.56.43.96,0,.44-.16.84-.46,1.19l-1.66,2.06c-.49.62-1.05,1.32-1.69,2.09-.64.78-1.24,1.54-1.79,2.29-.55.75-1.04,1.46-1.46,2.12s-.65,1.2-.7,1.59c0,.09-.01.2-.03.33-.02.13-.03.27-.03.4,0,1.06.42,1.59,1.26,1.59.58,0,1.27-.25,2.09-.76.82-.51,1.65-1.09,2.49-1.76s1.63-1.34,2.36-2.03c.73-.69,1.29-1.21,1.69-1.56l.46-.4c.27-.27.55-.4.86-.4s.57.1.8.3c.22.2.33.43.33.7,0,.22-.16.53-.46.93l-.4.46c-2.26,2.61-4.29,4.39-6.11,5.34-1.82.95-3.43,1.43-4.85,1.43-1.15,0-2.08-.3-2.79-.9-.71-.6-1.06-1.45-1.06-2.56,0-.88.22-1.84.66-2.85Zm9.83-13.28c0-.49.15-.9.46-1.23.31-.33.71-.5,1.2-.5s.9.17,1.23.5.5.74.5,1.23-.17.89-.5,1.2c-.33.31-.74.46-1.23.46s-.89-.15-1.2-.46c-.31-.31-.46-.71-.46-1.2Z" style="fill: #fffaf5;"/>
    <path d="m231.57,130.17c0-1.15.39-2.39,1.16-3.72.77-1.33,2.05-2.61,3.82-3.85,1.55-1.06,3.29-1.98,5.21-2.75,1.92-.78,3.95-1.6,6.07-2.49l6.24-2.52c.18-.09.52-.27,1.03-.53s1.01-.77,1.49-1.53l1.33-1.99c0-.09,0-.14.03-.17.02-.02.03-.08.03-.17,0-.31-.22-.46-.66-.46-.36,0-.82.18-1.39.53l-1.33.73c-1.55.84-2.97,1.26-4.25,1.26s-2.28-.37-2.99-1.1c-.71-.73-1.06-1.65-1.06-2.75,0-1.42.53-2.92,1.59-4.51,1.06-1.59,2.38-3.05,3.95-4.38,1.57-1.33,3.24-2.43,5.01-3.32,1.77-.88,3.36-1.33,4.78-1.33,1.15,0,2.3.29,3.45.86l.4.2c.35.18.72.33,1.09.46s.9.2,1.56.2c.18-.09.33-.13.46-.13.4,0,.8.12,1.2.36.4.24.6.54.6.9,0,.27-.13.53-.4.8-1.68,1.68-3.32,3.54-4.91,5.58-1.59,2.04-2.92,4.29-3.98,6.77l-.13.4c0,.18.07.27.2.27.4,0,1.08-.25,2.06-.76.97-.51,2.03-1.15,3.15-1.93,1.13-.77,2.26-1.61,3.39-2.52,1.13-.91,2.07-1.76,2.82-2.56.27-.31.55-.46.86-.46s.57.11.8.33c.22.22.33.49.33.8,0,.22-.11.49-.33.8l-.07.07c-1.9,1.86-3.91,3.5-6.01,4.91-2.1,1.42-4.28,2.63-6.54,3.65-.84.4-1.54.75-2.09,1.06-.55.31-1,.61-1.33.9-.33.29-.61.59-.83.9-.22.31-.46.64-.73,1-1.15,1.64-2.17,3.21-3.05,4.71-.89,1.5-1.93,2.85-3.12,4.05l-.2.2c-2.7,2.7-5.1,4.75-7.2,6.14-2.1,1.39-4.04,2.09-5.81,2.09s-3.11-.48-4.15-1.43-1.56-2.14-1.56-3.55Zm2.52,0c0,.75.28,1.37.83,1.86.55.49,1.36.73,2.42.73,1.5,0,3.02-.51,4.55-1.53,1.53-1.02,2.96-2.25,4.31-3.68,1.35-1.44,2.58-2.95,3.69-4.55,1.11-1.59,2.04-2.97,2.79-4.12l.07-.13c0-.27-.22-.4-.66-.4-.53,0-1.47.25-2.82.76-1.35.51-2.76,1.1-4.22,1.76-1.46.66-2.84,1.34-4.15,2.02-1.31.69-2.2,1.18-2.69,1.49-1.42,1.02-2.46,2.02-3.12,3.02s-1,1.91-1,2.75Zm18.26-20.98c.93,0,2.06-.35,3.39-1.06s2.6-1.57,3.82-2.59c1.22-1.02,2.26-2.08,3.12-3.19.86-1.11,1.29-2.06,1.29-2.85,0-.62-.24-1.11-.73-1.46-.49-.35-1.11-.53-1.86-.53-.97,0-2.11.3-3.42.9-1.31.6-2.56,1.36-3.75,2.29-1.19.93-2.2,1.95-3.02,3.05-.82,1.11-1.23,2.17-1.23,3.19,0,.75.23,1.32.7,1.69s1.03.56,1.69.56Z" style="fill: #fffaf5;"/>
    <path d="m268.22,110.18c1.15-1.77,2.38-3.53,3.68-5.28s2.6-3.51,3.88-5.28l2.72-3.78c.22-.35.49-.6.8-.73s.58-.2.8-.2c.58,0,1,.24,1.26.73.22.35.44.53.66.53.13,0,.27-.02.4-.07s.31-.11.53-.2c.58-.22,1.12-.39,1.63-.5.51-.11,1.01-.17,1.49-.17,1.19,0,2.21.3,3.05.9.84.6,1.26,1.49,1.26,2.69,0,.44-.08.92-.23,1.43-.16.51-.41,1.05-.76,1.63-.22.36-.49.72-.8,1.1-.31.38-.62.79-.93,1.23l-1.33,1.79c-.53.71-.91,1.34-1.13,1.89-.22.55-.33,1.01-.33,1.36,0,.53.24.8.73.8s1.12-.24,1.89-.73c.77-.49,1.57-1.06,2.39-1.73.82-.66,1.58-1.33,2.29-1.99.71-.66,1.26-1.15,1.66-1.46l.4-.33c.31-.22.55-.33.73-.33.31,0,.57.11.8.33.22.22.33.49.33.8s-.09.55-.27.73c-.66.66-1.42,1.41-2.26,2.22-.84.82-1.74,1.58-2.69,2.29-.95.71-1.93,1.31-2.92,1.79-1,.49-1.98.73-2.95.73s-1.75-.25-2.32-.76c-.58-.51-.86-1.25-.86-2.22,0-.62.13-1.32.4-2.09.27-.77.71-1.6,1.33-2.49l2.86-3.98c.31-.4.51-.75.6-1.06s.13-.58.13-.8c0-.4-.14-.67-.43-.83-.29-.15-.68-.23-1.16-.23-.84,0-1.72.2-2.62.6s-1.79.91-2.66,1.53c-.86.62-1.66,1.29-2.39,2.02s-1.32,1.43-1.76,2.09l-5.25,7.57c-.4.53-.86.8-1.39.8-.44,0-.81-.16-1.1-.46-.29-.31-.43-.66-.43-1.06,0-.31.09-.57.27-.8Z" style="fill: #fffaf5;"/>
  </g>
  <g>
    <circle cx="305.26" cy="108.96" r="2.32" style="fill: #fffaf5;"/>
    <circle cx="305.26" cy="98.76" r="2.32" style="fill: #fffaf5;"/>
    <circle cx="305.26" cy="88.56" r="2.32" style="fill: #fffaf5;"/>
  </g>
  <g>
    <g>
      <path d="m326.65,111.74c-1.63,0-3.15-.27-4.55-.81-1.4-.54-2.62-1.3-3.66-2.28-1.04-.98-1.85-2.16-2.43-3.54s-.88-2.9-.88-4.58.3-3.07.9-4.42c.6-1.36,1.44-2.54,2.51-3.54,1.07-1,2.3-1.78,3.69-2.33s2.87-.82,4.45-.82c1.22,0,2.4.17,3.53.5s2.16.77,3.09,1.32c.93.55,1.7,1.13,2.3,1.75l-2.27,3.17c-.89-.83-1.91-1.52-3.03-2.06-1.13-.55-2.4-.82-3.82-.82-1.26,0-2.46.3-3.6.9-1.14.6-2.07,1.44-2.79,2.53-.72,1.09-1.08,2.38-1.08,3.87,0,1.57.37,2.91,1.11,4.01.74,1.1,1.71,1.93,2.92,2.5s2.52.85,3.94.85c1.01,0,1.92-.14,2.73-.43.81-.29,1.54-.65,2.19-1.07.65-.42,1.24-.86,1.76-1.32l1.81,3.26c-.52.52-1.24,1.04-2.14,1.55-.9.52-1.93.95-3.08,1.3s-2.34.53-3.59.53Z" style="fill: #fffaf5;"/>
      <path d="m342.92,111.43v-21.74h9.85c2.37,0,4.39.49,6.05,1.46,1.66.97,2.92,2.28,3.79,3.93.86,1.65,1.3,3.47,1.3,5.48s-.43,3.87-1.3,5.51c-.87,1.65-2.13,2.95-3.79,3.91s-3.68,1.44-6.05,1.44h-9.85Zm9.71-18.01h-5.92v14.29h5.92c1.67,0,3.05-.32,4.12-.96s1.88-1.5,2.41-2.58c.53-1.08.79-2.28.79-3.6s-.26-2.49-.79-3.57c-.52-1.08-1.33-1.94-2.41-2.59s-2.45-.98-4.12-.98Z" style="fill: #fffaf5;"/>
      <path d="m368.22,111.43l9.45-21.74h3.91l9.39,21.74h-4.02l-2.04-4.75h-10.73l-2.07,4.75h-3.88Zm9.8-13.6l-2.33,5.37h7.67l-2.36-5.5c-.23-.54-.48-1.13-.74-1.77-.26-.64-.5-1.29-.71-1.96-.23.68-.48,1.34-.73,1.97s-.51,1.26-.79,1.88Z" style="fill: #fffaf5;"/>
      <path d="m397.15,117.76l-1.4-1.77c.89-.52,1.62-1.06,2.19-1.61.56-.56.85-1.06.85-1.49,0-.33-.1-.61-.31-.82-.2-.22-.48-.44-.83-.67-.41-.27-.77-.56-1.09-.88-.32-.32-.48-.76-.48-1.32,0-.72.25-1.27.74-1.65.5-.37,1.11-.56,1.85-.56.62,0,1.21.19,1.78.56.56.37,1.03.88,1.38,1.54.36.65.54,1.38.54,2.19,0,.87-.25,1.73-.76,2.58-.51.85-1.16,1.62-1.95,2.31s-1.63,1.23-2.51,1.6Z" style="fill: #fffaf5;"/>
    </g>
    <g>
      <path d="m411.66,111.43v-3.73h4.81v-14.29h-4.81v-3.73h13.41v3.73h-4.81v14.29h4.81v3.73h-13.41Z" style="fill: #fffaf5;"/>
      <path d="m434.2,111.43v-21.74h9.85c2.37,0,4.39.49,6.05,1.46,1.66.97,2.92,2.28,3.79,3.93.86,1.65,1.3,3.47,1.3,5.48s-.43,3.87-1.3,5.51c-.87,1.65-2.13,2.95-3.79,3.91s-3.68,1.44-6.05,1.44h-9.85Zm9.71-18.01h-5.92v14.29h5.92c1.67,0,3.05-.32,4.12-.96s1.88-1.5,2.41-2.58c.53-1.08.79-2.28.79-3.6s-.26-2.49-.79-3.57c-.52-1.08-1.33-1.94-2.41-2.59s-2.45-.98-4.12-.98Z" style="fill: #fffaf5;"/>
    </g>
  </g>
</svg>